<?xml version="1.0" encoding="utf-8"?>
<!-- Generator: Adobe Illustrator 21.1.0, SVG Export Plug-In . SVG Version: 6.00 Build 0)  -->
<svg version="1.1" id="Layer_1" xmlns="http://www.w3.org/2000/svg" xmlns:xlink="http://www.w3.org/1999/xlink" x="0px" y="0px"
	 viewBox="0 0 19 16" style="enable-background:new 0 0 19 16;" xml:space="preserve">
<style type="text/css">
	.st0{fill:#4E4E4E;}
</style>
<path class="st0" d="M16.7,3.7c-0.2,0-0.3-0.2-0.7-0.2S15.3,3.3,15.1,3c-0.2-0.2-1.1-0.3-1.4-0.2c-0.3,0.1-0.4-0.5-0.7-0.4
	c-0.3,0-0.4-0.4-0.4-0.6s-0.3,0.2-0.6,0.3c-0.3,0.1-0.4-0.3-0.4-0.4c0-0.2-0.5-0.4-0.8-0.5c-0.3-0.1-0.6-0.6-0.7-0.4
	c-0.1,0.2-0.4-0.3-0.5-0.5c0-0.1-0.1-0.1-0.2-0.2c-0.1,0-0.2,0-0.3,0c-0.5,0-0.9,0.3-0.8,1.1S8,2.1,7.2,2.1C6.5,2.2,6.7,2.8,6.4,3
	C6.1,3.3,4.9,2.9,4.8,2.5C4.6,2.1,3.6,2.5,4,3c0.5,0.5,0.4,1.2,0.2,1.4C3.9,4.6,3.4,4.1,3,4.3C2.7,4.6,2.7,4.1,2.3,3.9
	C1.8,3.8,1.6,4.1,1,4.1C0.3,4-0.1,4.4,0.2,4.7s0,0.6,0.2,0.8c0.2,0.3,1.1,0.2,1.7,0.6c0.7,0.4,0.8,0.1,1.1,0.3
	c0.3,0.3,0.4,0.1,0.4,0.6c0,0.5,0.4,0.9,1,1.1c0.6,0.2,0.2,0.6,0.4,1c0.2,0.4-0.3,1-0.2,1.6c0.1,0.5-0.3,2.2-0.6,2.3
	c0,0-0.1,0-0.1,0c0.3,0.1,0.6,0.3,0.7,0.4c0.3,0.2,0.9,0.4,1.3,0.6c0.4,0.2,1,0.2,1-0.1c0-0.3,0.4-0.1,0.6,0.1
	c0.2,0.2,1.1,0.3,1.5,0.4c0.4,0.1,0.9,0,1.3,0c0-0.1,0-0.2-0.1-0.3c-0.2-0.7,0.5-1.2,1.1-1.3c0.6-0.1,2,0.3,2.4,0.5
	c0.4,0.2,0.9,0.2,1.5-0.5c0.3-0.3,0.3-0.7,0.5-0.8c0-0.1,0.4-0.1,0.5-0.2c0.1-0.2-0.3-0.2-0.6-0.2c-0.3,0-0.5-0.3-0.3-0.6
	c0.2-0.3-0.2-0.4-0.4-0.7C15,10,15.3,10.1,15.5,10s0.4-0.4,0.3-0.5c-0.1-0.1-0.3-0.3-0.1-0.6c0.1-0.4-0.2-0.4-0.2-0.6
	c0-0.3-0.3-0.4-0.6-0.1c-0.3,0.3-0.4,0.1-0.2-0.4c0.2-0.5,0.8-0.8,0.8-1c0.1-0.3,0.4-0.5,0.7-0.5c0.3,0,0.2-0.6,0.3-1
	c0.1-0.4,0.1-0.8,0.5-1.1C17.3,3.8,16.9,3.7,16.7,3.7z M18.8,13.5c-0.2,0-0.3,0.4-0.8,0.7c-0.5,0.3,0,1.8,0.5,1.7
	C19,15.9,19,13.5,18.8,13.5z"/>
</svg>
